<svg xmlns="http://www.w3.org/2000/svg" viewBox="0 0 131.1 131.02"><defs><style>.cls-1{fill:#fff;}</style></defs><g id="Layer_2" data-name="Layer 2"><g id="Layer_1-2" data-name="Layer 1"><rect class="cls-1" x="1.79" y="18.54" width="126.39" height="83.37" rx="11.57"/><rect class="cls-1" x="23.61" y="3.43" width="83.85" height="81.04"/><path d="M130.81,24.3a9.41,9.41,0,0,0-8.28-7.13c-3-.22-6-.05-9.14-.05v3.8c2.62,0,5.17,0,7.72,0a5.77,5.77,0,0,1,6.15,6.18q0,33.15,0,66.31a5.74,5.74,0,0,1-6.08,6.11q-55.61,0-111.24,0a5.74,5.74,0,0,1-6.09-6.09q0-33.23,0-66.44A5.74,5.74,0,0,1,10,20.93c2.55,0,5.12,0,7.75,0V17.08H10.39C4,17.09,0,21.06,0,27.46V93c0,6.39,4,10.38,10.39,10.38H51.47a4.7,4.7,0,0,1,.12.59c0,5,0,10.07,0,15.11,0,.78-.43,1-1,1.23-4.46,1.82-8.89,3.68-13.36,5.46-.92.36-1.36.77-1.28,1.83a30.3,30.3,0,0,1-.1,3.43h59.4c0-1.23-.13-2.46-.1-3.69a1.33,1.33,0,0,0-1-1.48q-6.81-2.75-13.59-5.59c-.41-.18-1-.7-1-1.06,0-5.21,0-10.41,0-15.83h1.53c12.8,0,25.61-.15,38.4.06,6.07.11,10.37-2.55,11.65-8.25V25.27C131,25,130.89,24.63,130.81,24.3ZM86.53,127.09H44.61l0-.17c3.27-1.35,6.51-2.71,9.8-4a1.42,1.42,0,0,0,1.08-1.58c0-5.42,0-10.83,0-16.24v-1.63H75.67V105c0,5.42,0,10.84,0,16.25a1.51,1.51,0,0,0,1.12,1.68C80.06,124.2,83.29,125.57,86.53,127.09Z"/><polygon points="107.48 0 107.48 32.91 103.75 32.91 103.75 3.84 92.19 3.84 92.19 37.83 88.38 37.83 88.38 3.83 42.87 3.83 42.87 49.15 69.69 49.15 69.69 52.96 42.8 52.96 42.8 84.44 38.9 84.44 38.9 3.79 27.45 3.79 27.45 84.47 23.61 84.47 23.61 0 107.48 0"/><path d="M119.89,27.63v65.2H11.22V27.63h6.5v3.8H15.07v57.5h101V31.49l-2.7-.13V27.63Z"/><path d="M111,47.83c-1.56-2.35-3.14-4.67-4.71-7-2.08-3.08-4.65-3.59-7.74-1.52Q81.08,51,63.64,62.78a4.22,4.22,0,0,0-1.38,1.58c-2.54,5-5,10.07-7.51,15.1-.18.37-.34.75-.5,1.12.17.09.25.15.33.15,6.07-.44,12.16-.87,18.23-1.33a3.41,3.41,0,0,0,1.41-.53Q91.91,67,109.56,55.12C112.32,53.27,112.83,50.59,111,47.83ZM60.53,76.46c1.34-2.69,2.59-5.23,3.94-8,1.68,2.51,3.22,4.8,4.91,7.3Zm12.83-1.63L66.89,65.2,93.48,47.33,100,57Zm34.25-23c-1.44,1-2.89,1.95-4.47,3-2.15-3.22-4.28-6.37-6.46-9.62,1.6-1.07,3.09-2.13,4.65-3.06a1.49,1.49,0,0,1,1.38.33c1.8,2.53,3.51,5.13,5.23,7.71A1.05,1.05,0,0,1,107.61,51.81Z"/><path d="M56.89,10.22V40.77l22-15.28Zm3.83,7.34,11.42,7.93L60.72,33.41Z"/><rect x="103.76" y="64.81" width="3.69" height="19.66"/><rect x="88.39" y="75.12" width="3.71" height="9.35"/><rect x="31.28" y="7.84" width="3.72" height="3.62"/><rect x="96.08" y="7.82" width="3.72" height="3.69"/><rect x="31.31" y="19.32" width="3.7" height="3.69"/><rect x="96.07" y="19.33" width="3.74" height="3.69"/><rect x="31.33" y="30.84" width="3.66" height="3.71"/><rect x="96.09" y="30.87" width="3.74" height="3.66"/><rect x="31.3" y="42.38" width="3.73" height="3.69"/><rect x="31.3" y="53.89" width="3.69" height="3.7"/><rect x="31.29" y="65.41" width="3.69" height="3.69"/><rect x="31.3" y="76.94" width="3.73" height="3.69"/><rect x="96.1" y="77.23" width="3.69" height="3.68"/><path class="cls-1" d="M44.58,126.92c3.26-1.34,6.51-2.72,9.8-4a1.43,1.43,0,0,0,1.08-1.58c0-5.41,0-10.83,0-16.24v-1.63H75.67V105c0,5.41,0,10.83,0,16.24a1.5,1.5,0,0,0,1.12,1.68c3.28,1.28,6.53,2.66,9.76,4.17H44.61Z"/><path class="cls-1" d="M73.36,74.83l-6.47-9.62L93.48,47.33,100,57Z"/><path class="cls-1" d="M96.68,45.19c1.6-1.07,3.09-2.13,4.65-3a1.46,1.46,0,0,1,1.38.32c1.8,2.53,3.51,5.13,5.24,7.71a1.06,1.06,0,0,1-.34,1.64c-1.44,1-2.89,1.94-4.46,3Z"/><path class="cls-1" d="M64.47,68.5l4.91,7.31-8.85.65Z"/><path class="cls-1" d="M72.14,25.48,60.72,33.42V17.56Z"/></g></g></svg>