<svg id="Layer_1" data-name="Layer 1" xmlns="http://www.w3.org/2000/svg" viewBox="0 0 153.39 153.39"><defs><style>.cls-1{fill:#fff;}</style></defs><path class="cls-1" d="M88.42,103.08h36.67c4.48,0,6.83-2.31,6.83-6.75q0-28.9,0-57.81c0-4.4-2.34-6.74-6.71-6.74H27.67c-4.29,0-6.63,2.35-6.63,6.67V96.38c0,4.38,2.33,6.7,6.73,6.7H64.51a15.14,15.14,0,0,1-2.36,7.14,1.52,1.52,0,0,1-1.5.8c-4.45,0-8.91,0-13.36,0-1.79,0-2.45.67-2.46,2.48,0,2.27,0,4.54,0,6.8,0,2,.63,2.6,2.58,2.6h58.18c1.86,0,2.55-.66,2.57-2.52,0-2.23,0-4.45,0-6.68,0-2-.65-2.68-2.66-2.68-4.38,0-8.75,0-13.12,0a1.77,1.77,0,0,1-1.28-.43A14.22,14.22,0,0,1,88.42,103.08Z"/><path d="M88.42,103.08a14.22,14.22,0,0,0,2.68,7.47,1.77,1.77,0,0,0,1.28.43c4.37,0,8.74,0,13.12,0,2,0,2.65.64,2.66,2.68,0,2.23,0,4.45,0,6.68,0,1.86-.71,2.52-2.57,2.52H47.41c-1.95,0-2.58-.63-2.58-2.6,0-2.26,0-4.53,0-6.8,0-1.81.67-2.47,2.46-2.48,4.45,0,8.91,0,13.36,0a1.52,1.52,0,0,0,1.5-.8,15.14,15.14,0,0,0,2.36-7.14H27.77c-4.4,0-6.73-2.32-6.73-6.7V38.45c0-4.32,2.34-6.67,6.63-6.67h97.54c4.37,0,6.71,2.34,6.71,6.74q0,28.9,0,57.81c0,4.44-2.35,6.75-6.83,6.75H88.42ZM127.9,87.2c0-.45.06-.77.06-1.09V38.46c0-2.11-.63-2.72-2.74-2.72H27.83c-2.28,0-2.83.55-2.83,2.86V85.87c0,.43,0,.87.06,1.33Zm0,4.06H25v4.85c0,2.53.49,3,3.05,3h96.88c.33,0,.66,0,1,0a1.91,1.91,0,0,0,2-1.93C128,95.25,127.94,93.31,127.94,91.26ZM104.13,115H48.88v3.83h55.25Zm-20-11.88H68.83l-2.2,7.79H86.35C85.62,108.4,84.89,105.85,84.12,103.15Z"/><path class="cls-1" d="M127.9,87.2H25.06c0-.46-.06-.9-.06-1.33V38.6c0-2.31.55-2.86,2.83-2.86h97.39c2.11,0,2.74.61,2.74,2.72V86.11C128,86.43,127.93,86.75,127.9,87.2ZM55.32,61.32a17.17,17.17,0,0,0,1.55-1.22c3-3,6-5.92,8.93-8.92,1.26-1.28.83-3.25-.78-3.44a3,3,0,0,0-2.14.84C59.12,52.23,55.44,56,51.74,59.66c-1.36,1.37-1.36,2.29,0,3.67q5.46,5.48,10.93,10.94a4.77,4.77,0,0,0,.82.74,2,2,0,0,0,2.72-2.67,5.72,5.72,0,0,0-.9-1C62.11,68.09,58.87,64.86,55.32,61.32Zm42.12.18c-3.4,3.4-6.71,6.69-10,10a3.72,3.72,0,0,0-.94,1.27A1.81,1.81,0,0,0,87.3,75,2,2,0,0,0,90,74.55l11.2-11.19c1.41-1.41,1.4-2.34,0-3.77q-5.46-5.48-10.94-10.93a4.61,4.61,0,0,0-.73-.67,1.83,1.83,0,0,0-2.48.23,1.85,1.85,0,0,0-.24,2.48,6.1,6.1,0,0,0,.91,1Zm-15-12.09A5.36,5.36,0,0,0,81.56,48c-1.1-.91-2.55-.35-3.07,1.19C77.3,52.69,76.16,56.17,75,59.64c-1.4,4.22-2.81,8.43-4.2,12.65-.55,1.66.14,3,1.59,3s1.84-.83,2.2-1.93q3.72-11.25,7.47-22.47C82.2,50.5,82.31,50.06,82.49,49.41Z"/><path class="cls-1" d="M127.94,91.26c0,2,0,4,0,5.92a1.91,1.91,0,0,1-2,1.93c-.33,0-.66,0-1,0H28.05c-2.56,0-3.05-.48-3.05-3V91.26Z"/><path class="cls-1" d="M104.13,115v3.83H48.88V115Z"/><path class="cls-1" d="M84.12,103.15c.77,2.7,1.5,5.25,2.23,7.79H66.63l2.2-7.79Z"/><path d="M55.32,61.32c3.55,3.54,6.79,6.77,10,10a5.72,5.72,0,0,1,.9,1A2,2,0,0,1,63.52,75a4.77,4.77,0,0,1-.82-.74q-5.48-5.46-10.93-10.94c-1.39-1.38-1.39-2.3,0-3.67,3.7-3.7,7.38-7.43,11.14-11.08A3,3,0,0,1,65,47.74c1.61.19,2,2.16.78,3.44-2.95,3-5.94,6-8.93,8.92A17.17,17.17,0,0,1,55.32,61.32Z"/><path d="M97.44,61.5l-9.79-9.8a6.1,6.1,0,0,1-.91-1A1.85,1.85,0,0,1,87,48.22,1.83,1.83,0,0,1,89.46,48a4.61,4.61,0,0,1,.73.67q5.48,5.46,10.94,10.93c1.43,1.43,1.44,2.36,0,3.77L90,74.55A2,2,0,0,1,87.3,75a1.81,1.81,0,0,1-.79-2.26,3.72,3.72,0,0,1,.94-1.27C90.73,68.19,94,64.9,97.44,61.5Z"/><path d="M82.49,49.41c-.18.65-.29,1.09-.43,1.52Q78.32,62.17,74.59,73.4c-.36,1.1-.89,2-2.2,1.93s-2.14-1.38-1.59-3c1.39-4.22,2.8-8.43,4.2-12.65,1.16-3.47,2.3-7,3.49-10.41.52-1.54,2-2.1,3.07-1.19A5.36,5.36,0,0,1,82.49,49.41Z"/></svg>