<svg id="Layer_1" data-name="Layer 1" xmlns="http://www.w3.org/2000/svg" viewBox="0 0 153.39 153.39"><defs><style>.cls-1{fill:#fff;}</style></defs><rect class="cls-1" x="120.39" y="104.35" width="11.47" height="20.1" transform="translate(-43.96 122.69) rotate(-45)"/><rect class="cls-1" x="9.58" y="42.02" width="92.25" height="54.86"/><path d="M144.57,22.65V53a23.06,23.06,0,0,1-2.33,3.88c-1.32,1.49-3.22,1.84-5.19,1.84-8.39,0-16.78,0-25.17,0a5,5,0,0,0-3.57,1.53,7,7,0,0,0-2.45,6.38c.22,2.48.06,5,0,7.51a1.28,1.28,0,0,0,1,1.46,12.76,12.76,0,0,1,8.47,9.93,1.87,1.87,0,0,0,.46.88c3.25,3.14,6.54,6.24,9.75,9.41a3.34,3.34,0,0,1,.63,3.92c-.41.89-.12,1.31.46,1.89q6.56,6.5,13.06,13c2,2,2,3.66,0,5.67-1.79,1.81-3.59,3.62-5.41,5.4s-3.58,1.82-5.38,0c-1.57-1.54-3.13-3.1-4.66-4.65-1.08-1.11-1.2-2.27-.33-3.13s2-.8,3.1.33c1.49,1.48,3,3,4.36,4.42l5.22-5.23L123,103.87l-5.35,5.38a29,29,0,0,1,2.26,1.88c1.08,1,1.15,2.12.32,3s-2,.78-3.13-.25c-.28-.27-.57-.54-.83-.83-.79-.91-1.49-1.57-2.94-.89a3.28,3.28,0,0,1-3.72-1c-1.18-1.19-2.32-2.39-3.64-3.76-1,3-3.1,3.38-5.66,3.36-7.16-.09-14.32,0-21.62,0,.14.39.22.71.36,1,2.41,5.31,4.84,10.61,7.23,15.94a1.41,1.41,0,0,0,1.56,1c2.81,0,5.63,0,8.44,0,1.52,0,2.43.78,2.43,2s-.92,2-2.46,2h-77c-1.54,0-2.44-.76-2.44-2s.92-2,2.47-2c2.86,0,5.71,0,8.56,0a1.61,1.61,0,0,0,1.21-.65q3.87-8.36,7.65-16.76a1.75,1.75,0,0,0,.06-.5H14.36c-3.28,0-4.78-1.48-4.78-4.71V64.87a9.16,9.16,0,0,1,0-1.05A1.87,1.87,0,0,1,11.53,62a1.85,1.85,0,0,1,2,1.74,8.16,8.16,0,0,1,0,1.31V96.77H91.87c-4.17-5.9-4-12.51-3.69-19.12a3.69,3.69,0,0,1,3.69-3.59c3.28-.08,6.57,0,10,0V67.35l-.64.27a3.49,3.49,0,0,1-5.15-3.24c0-1.72,0-3.44,0-5.14a1.57,1.57,0,0,0-.84-1.6,6.78,6.78,0,0,1-3.34-6.18c0-3.12,0-6.23,0-9.44H13.54v1.42c0,3.64,0,7.29,0,10.94,0,1.45-.75,2.3-2,2.31s-2-.83-2-2.26c0-4.13,0-8.26,0-12.39a4,4,0,0,1,4-4.07h78.3V34.88c0-3.48,0-7,0-10.42,0-4.44,2.91-7.34,7.36-7.35,12.21,0,24.43.09,36.64-.06C140.2,17,143.18,18.45,144.57,22.65Z"/><path d="M100,63.4c1.91-2,3.65-3.73,5.18-5.59a8.33,8.33,0,0,1,7.15-3.12c8.21.12,16.43.05,24.65,0,2.54,0,3.63-1.09,3.64-3.59V24.64c0-2.46-1.1-3.57-3.51-3.57q-18.86,0-37.7,0c-2.44,0-3.58,1.1-3.58,3.51,0,8.88,0,17.76,0,26.63a3.43,3.43,0,0,0,1.89,3.34,4.28,4.28,0,0,1,2.29,4C100,60.05,100,61.53,100,63.4Z"/><path d="M13.6,106.69h88.33a7.06,7.06,0,0,0-.07-2.66,6.75,6.75,0,0,0-2.11-2.74,5.26,5.26,0,0,0-2.81-.46q-40.92,0-81.86,0H13.6Z"/><path d="M33.14,128.66c2.75,0,5.25,0,7.75,0a1.39,1.39,0,0,0,1.47-1c1.49-3.18,3.08-6.31,4.54-9.5a5,5,0,0,1,5-3.15q5.86.08,11.73,0a5,5,0,0,1,5,3.14c1.47,3.18,3,6.34,4.56,9.49.19.37.6.9.93.91,2.7.07,5.4,0,8.17,0-.07-.27-.08-.4-.13-.52-2.52-5.55-5-11.1-7.6-16.63a1.68,1.68,0,0,0-1.27-.75c-10.33,0-20.65,0-31,0a1.36,1.36,0,0,0-1.45,1c-1.77,4-3.59,7.9-5.39,11.86C34.71,125.15,34,126.79,33.14,128.66Z"/><path d="M92.13,78c-.21,4.34-.33,8.58,1,12.71a9,9,0,0,0,7.32,6.56,1.82,1.82,0,0,0,1.36-.39q4.67-4.56,9.21-9.22a1.73,1.73,0,0,0,.35-1.35,8.76,8.76,0,0,0-6.08-7.13C101.06,77.67,96.65,77.66,92.13,78Z"/><path d="M69.18,128.58c-1.49-3.09-2.91-6.08-4.4-9a1.46,1.46,0,0,0-1.1-.48c-3.94,0-7.89,0-11.83,0a1.53,1.53,0,0,0-1.17.56c-1.48,2.92-2.88,5.88-4.36,9Z"/><path d="M104.49,100.17l7.87,7.87,9.75-9.73-7.87-7.88Z"/><path d="M80.41,70.69c-6.24-6.83-14.07-10-23.23-9.82A29.21,29.21,0,0,0,35,70.76c-2.11,2.35-2.08,4.4.06,6.77,6,6.67,13.69,9.68,22.63,9.89,8.93-.17,16.67-3.19,22.75-10C82.54,75.15,82.52,73,80.41,70.69ZM45.53,80.37c-.3,0-.53,0-.66-.09-2.3-1.8-4.59-3.59-6.85-5.45a1.21,1.21,0,0,1-.22-1.17c1.08-1.82,5.43-5.12,7.76-5.9A14.16,14.16,0,0,0,45.53,80.37Zm12.2,3.09c-5.8,0-9.69-3.76-9.69-9.37s3.85-9.29,9.72-9.3,9.74,3.78,9.73,9.33S63.53,83.46,57.73,83.46Zm19.86-8.75a24.13,24.13,0,0,1-7.78,6,14.33,14.33,0,0,0,0-13.15,23.58,23.58,0,0,1,8,6.18C77.92,73.89,77.8,74.48,77.59,74.71Z"/><path d="M59.69,53.79a11.56,11.56,0,0,1,0,1.18,1.8,1.8,0,0,1-1.81,1.73,1.74,1.74,0,0,1-2-1.5,8.34,8.34,0,0,1,0-2.73,1.78,1.78,0,0,1,2-1.56,1.84,1.84,0,0,1,1.86,1.83C59.72,53.09,59.69,53.44,59.69,53.79Z"/><path d="M74.91,56.29a3.32,3.32,0,0,1-2.71,2.79,1.91,1.91,0,0,1-2-1.82,3.29,3.29,0,0,1,2.74-2.88A2.05,2.05,0,0,1,74.91,56.29Z"/><path d="M45.31,57.12a1.92,1.92,0,0,1-1.87,2,3.14,3.14,0,0,1-2.81-2.65,2,2,0,0,1,1.92-2A3.38,3.38,0,0,1,45.31,57.12Z"/><path class="cls-1" d="M137.11,21.07q-18.86,0-37.7,0c-2.45,0-3.57,1.1-3.57,3.51,0,8.88,0,17.76,0,26.63a3.47,3.47,0,0,0,1.89,3.34,4.27,4.27,0,0,1,2.3,4c0,1.48,0,3,0,4.83,1.91-2,3.65-3.73,5.17-5.59a8.33,8.33,0,0,1,7.16-3.12c8.21.12,16.43,0,24.64,0,2.55,0,3.64-1.1,3.64-3.59q0-13.26,0-26.5C140.61,22.18,139.52,21.07,137.11,21.07ZM117.54,48.82c-1.94,0-3.86,0-5.79,0s-3.77,0-5.64,0c-1.4,0-2.16-.73-2.18-1.92a1.91,1.91,0,0,1,2.12-2q5.78-.07,11.57,0A2,2,0,0,1,119.8,47C119.74,48.13,119,48.8,117.54,48.82Zm14.63-9.92a2.91,2.91,0,0,1-2,.9c-4,.08-8,0-12,0H106.34c-1.6,0-2.42-.69-2.41-2s.86-2,2.41-2c8,0,15.89,0,23.84,0A3,3,0,0,1,132.24,37,2,2,0,0,1,132.17,38.9Zm-2-8c-4,0-8,0-12,0s-7.91,0-11.85,0c-1.61,0-2.43-.68-2.43-1.94s.85-2,2.4-2q11.92,0,23.84,0c1.52,0,2.4.8,2.37,2S131.69,30.85,130.2,30.86Z"/><path class="cls-1" d="M13.6,106.69v-5.88h1.48q40.94,0,81.86,0a5.26,5.26,0,0,1,2.81.46,6.75,6.75,0,0,1,2.11,2.74,7.06,7.06,0,0,1,.07,2.66Z"/><path class="cls-1" d="M33.14,128.66c.84-1.87,1.57-3.51,2.31-5.13,1.8-4,3.62-7.9,5.39-11.86a1.36,1.36,0,0,1,1.45-1c10.32,0,20.64,0,31,0a1.68,1.68,0,0,1,1.27.75c2.57,5.53,5.08,11.08,7.6,16.63.05.12.06.25.13.52-2.77,0-5.47,0-8.17,0-.33,0-.74-.54-.93-.91-1.55-3.15-3.09-6.31-4.56-9.49a5,5,0,0,0-5-3.14q-5.86.08-11.73,0a5,5,0,0,0-5,3.15c-1.46,3.19-3,6.32-4.54,9.5a1.39,1.39,0,0,1-1.47,1C38.39,128.62,35.89,128.66,33.14,128.66Z"/><path class="cls-1" d="M92.13,78c4.52-.34,8.93-.33,13.18,1.18a8.76,8.76,0,0,1,6.08,7.13,1.73,1.73,0,0,1-.35,1.35q-4.55,4.66-9.21,9.22a1.82,1.82,0,0,1-1.36.39,9,9,0,0,1-7.32-6.56C91.8,86.58,91.92,82.34,92.13,78Z"/><path class="cls-1" d="M69.18,128.58H46.32c1.48-3.07,2.88-6,4.36-9a1.53,1.53,0,0,1,1.17-.56c3.94,0,7.89,0,11.83,0a1.46,1.46,0,0,1,1.1.48C66.27,122.5,67.69,125.49,69.18,128.58Z"/><path class="cls-1" d="M104.49,100.17l9.75-9.74,7.87,7.88L112.36,108Z"/><path class="cls-1" d="M57.74,83.46c-5.81,0-9.7-3.76-9.7-9.36s3.85-9.3,9.72-9.31,9.75,3.77,9.73,9.33S63.53,83.46,57.74,83.46Z"/><path class="cls-1" d="M45.57,67.76a14.16,14.16,0,0,0,0,12.61c-.3,0-.53,0-.66-.1-2.3-1.79-4.6-3.58-6.85-5.44a1.24,1.24,0,0,1-.22-1.17C38.87,71.84,43.24,68.54,45.57,67.76Z"/><path class="cls-1" d="M69.82,80.69a14.36,14.36,0,0,0,0-13.15,23.36,23.36,0,0,1,8,6.18c.15.17,0,.76-.17,1A24.1,24.1,0,0,1,69.82,80.69Z"/><path d="M118.21,30.86c-3.95,0-7.9,0-11.85,0-1.6,0-2.43-.68-2.43-1.95s.85-2,2.4-2q11.92,0,23.84,0c1.52,0,2.4.81,2.37,2.05s-.85,1.89-2.35,1.9C126.2,30.87,122.2,30.86,118.21,30.86Z"/><path d="M118.19,39.84H106.34c-1.6,0-2.41-.68-2.41-2s.85-2,2.42-2c7.94,0,15.89,0,23.83,0A3.06,3.06,0,0,1,132.25,37a2,2,0,0,1-.08,1.91,2.91,2.91,0,0,1-2,.9C126.18,39.88,122.19,39.84,118.19,39.84Z"/><path d="M111.75,48.82c-1.88,0-3.77,0-5.65,0-1.4,0-2.16-.73-2.17-1.92a1.93,1.93,0,0,1,2.12-2c3.86,0,7.71,0,11.57,0A2,2,0,0,1,119.8,47c-.06,1.15-.86,1.82-2.26,1.84C115.61,48.84,113.68,48.82,111.75,48.82Z"/></svg>