<svg id="Layer_1" data-name="Layer 1" xmlns="http://www.w3.org/2000/svg" viewBox="0 0 153.39 153.39"><defs><style>.cls-1{fill:#fff;}</style></defs><path class="cls-1" d="M122,45.47c.48-.43.86-.72,1.2-1.07a5.72,5.72,0,1,0-8.13-8c-2.35,2.33-4.71,4.66-7,7a2.89,2.89,0,0,1-2.3.93q-31.95,0-63.89,0a12.74,12.74,0,0,0-2.62.18c-4.52.94-7.37,4.65-7.37,9.55,0,16.83.06,33.67,0,50.5a9.63,9.63,0,0,0,10,10c8.49-.18,17,0,25.48,0h1.57c-.68,2.4-1.37,4.68-2,7-.23,1-.67,1.21-1.64,1.21q-17.82-.06-35.65,0a6.79,6.79,0,0,0-1.43.09c-.84.2-1.41.83-1.18,1.64a3.5,3.5,0,0,0,1.29,1.48c.23.18.7.06,1,.06q47.39,0,94.76,0a6.16,6.16,0,0,0,1,0,1.61,1.61,0,0,0,.06-3.21,8.29,8.29,0,0,0-1.32,0c-9.65,0-19.3,0-28.95,0a1.51,1.51,0,0,1-1.77-1.37c-.47-1.93-1.07-3.84-1.6-5.75-.09-.32-.12-.66-.2-1.09h25.51c5.92,0,9.76-3.83,9.76-9.71q0-25.42,0-50.86a12.06,12.06,0,0,0-.18-2.25A9.55,9.55,0,0,0,122,45.47Z"/><path class="cls-1" d="M53.11,27.22c0-.84,0-1.68,0-2.52a1.54,1.54,0,0,0-1.57-1.62,1.49,1.49,0,0,0-1.66,1.52c-.07,1.71-.07,3.43,0,5.14a1.45,1.45,0,0,0,1.6,1.45,1.53,1.53,0,0,0,1.61-1.58C53.15,28.82,53.11,28,53.11,27.22Z"/><path class="cls-1" d="M45.84,31.22c-.84,0-1.68,0-2.51,0a1.56,1.56,0,0,0-1.63,1.58,1.51,1.51,0,0,0,1.53,1.66c1.67.07,3.35.08,5,0a1.49,1.49,0,0,0,1.55-1.62,1.53,1.53,0,0,0-1.57-1.62C47.44,31.17,46.64,31.22,45.84,31.22Z"/><path class="cls-1" d="M53.11,38.58c0-.8,0-1.6,0-2.39a1.62,1.62,0,1,0-3.24-.06c-.06,1.63-.06,3.27,0,4.9A1.62,1.62,0,1,0,53.1,41C53.13,40.18,53.11,39.38,53.11,38.58Z"/><path class="cls-1" d="M57.22,31.21c-.8,0-1.59,0-2.39,0a1.63,1.63,0,0,0-1.7,1.64,1.59,1.59,0,0,0,1.71,1.63c1.59,0,3.19,0,4.78,0a1.63,1.63,0,1,0,0-3.25C58.82,31.18,58,31.22,57.22,31.21Z"/><path class="cls-1" d="M77.63,34.23a1.84,1.84,0,0,0,1.78,1.87,1.86,1.86,0,0,0,1.91-1.74,1.85,1.85,0,1,0-3.69-.13Z"/><path d="M122,45.47a9.55,9.55,0,0,1,4.46,6.25,12.06,12.06,0,0,1,.18,2.25q0,25.44,0,50.86c0,5.88-3.84,9.7-9.76,9.71H91.34c.08.43.11.77.2,1.09.53,1.91,1.13,3.82,1.6,5.75a1.51,1.51,0,0,0,1.77,1.37c9.65-.06,19.3,0,29,0a8.29,8.29,0,0,1,1.32,0,1.61,1.61,0,0,1-.06,3.21,6.16,6.16,0,0,1-1,0q-47.39,0-94.76,0c-.35,0-.82.12-1-.06a3.5,3.5,0,0,1-1.29-1.48c-.23-.81.34-1.44,1.18-1.64a6.79,6.79,0,0,1,1.43-.09q17.82,0,35.65,0c1,0,1.41-.26,1.64-1.21.58-2.31,1.27-4.59,2-7H67.34c-8.49,0-17-.13-25.48,0a9.63,9.63,0,0,1-10-10c.1-16.83,0-33.67,0-50.5,0-4.9,2.85-8.61,7.37-9.55a12.74,12.74,0,0,1,2.62-.18q31.95,0,63.89,0a2.89,2.89,0,0,0,2.3-.93c2.29-2.38,4.65-4.71,7-7a5.72,5.72,0,1,1,8.13,8C122.83,44.75,122.45,45,122,45.47ZM56.46,99.82h66.92v-15q0-15.37,0-30.75a6.26,6.26,0,0,0-2.62-5.48,1.29,1.29,0,0,0-2,.18C113.6,54,108.39,59.19,103.2,64.38c-.24.24-.45.51-.62.7a39.8,39.8,0,0,1,3.91,2.64A5.16,5.16,0,0,1,107.55,75a15.22,15.22,0,0,1-3.26,3.62c-3.26,2.55-6.65,4.94-10,7.36-.86.62-1.79,1.13-2.83,1.78,3.23.64,6.27,1.19,9.28,1.87,2.79.63,5.56,1.38,8.33,2.13a1.49,1.49,0,0,1,1.17,1.92,1.53,1.53,0,0,1-1.91,1.2c-.27,0-.53-.14-.81-.2l-18-3.82a7.75,7.75,0,0,0-5.59.86c-2.87,1.54-6,2.68-8.89,4.09-2.46,1.19-4.91.85-7.32,0-2.6-.88-3-3.15-1-5a14.73,14.73,0,0,1,6.08-3.2c4-1,8-.83,12-.64a3.23,3.23,0,0,0,1.58-.29,87.43,87.43,0,0,0,16.11-10.91,13.41,13.41,0,0,0,2.21-2.49,2.09,2.09,0,0,0-.5-3.25A34.42,34.42,0,0,0,100.65,68c-.59-.34-1-.15-1.45.32Q95.9,71.74,92.52,75A7.66,7.66,0,0,1,91,76.22c-4.16,2.44-8.34,4.84-12.51,7.26-.85.5-1.7.82-2.5,0s-.46-1.68.06-2.5c3.27-5.15,5.54-10.93,9.69-15.53-2-.54-10-.3-12.7.38-4.58,1.16-6.36,4-5.41,8.64.28,1.34-.09,2.18-1,2.43s-1.81-.34-2.15-1.68c-1.49-5.91,1.48-11,7.4-12.43,5.34-1.33,10.76-1,16.18-.57a2,2,0,0,0,1.79-.61C94.2,57.19,98.62,52.8,103,48.4a9.87,9.87,0,0,0,.63-.79H56.46Zm-21.25,3.35c-.15,2.13-.17,4.11,1.18,5.81a6.48,6.48,0,0,0,5.5,2.34q37.36,0,74.74,0c.36,0,.72,0,1.08,0a6.2,6.2,0,0,0,5.45-8.11ZM53.07,47.54H41.83c-4.29,0-6.68,2.39-6.68,6.65v45.6H53.07Zm37.06,75.12c-.74-2.6-1.42-5.09-2.17-7.56a1.14,1.14,0,0,0-.87-.53c-1.39-.06-2.79,0-4.19,0H72.33L70,122.66Zm13.05-69.44L87.4,69l3.08,3.21,15.93-15.93Zm9.21-2.75c2.91-2.9,5.91-5.76,8.76-8.75a2.33,2.33,0,0,0-1.56-3.91,3.45,3.45,0,0,0-2.28,1c-2.69,2.55-5.27,5.2-7.89,7.82a4.4,4.4,0,0,0-.38.49ZM69.62,92.85c.16.11.24.2.35.22a7.37,7.37,0,0,0,.82.13c3.28.28,5.69-1.9,8.51-2.93C75.84,90.22,72.52,90.62,69.62,92.85ZM87.53,74.49l-2.45-2.64c-1.11,2-2.16,3.81-3.22,5.66l.2.14Zm18-24.09L109,54l1-.91-3.44-3.53Z"/><path d="M53.11,27.22c0,.79,0,1.6,0,2.39a1.53,1.53,0,0,1-1.61,1.58,1.45,1.45,0,0,1-1.6-1.45c-.09-1.71-.09-3.43,0-5.14a1.49,1.49,0,0,1,1.66-1.52A1.54,1.54,0,0,1,53.1,24.7C53.14,25.54,53.11,26.38,53.11,27.22Z"/><path d="M45.84,31.22c.8,0,1.6,0,2.39,0a1.53,1.53,0,0,1,1.57,1.62,1.49,1.49,0,0,1-1.55,1.62c-1.67.08-3.35.07-5,0a1.51,1.51,0,0,1-1.53-1.66,1.56,1.56,0,0,1,1.63-1.58C44.16,31.18,45,31.22,45.84,31.22Z"/><path d="M53.11,38.58c0,.8,0,1.6,0,2.39a1.62,1.62,0,1,1-3.24.06c-.06-1.63-.06-3.27,0-4.9a1.62,1.62,0,1,1,3.24.06C53.14,37,53.11,37.78,53.11,38.58Z"/><path d="M57.22,31.22c.8,0,1.6,0,2.39,0a1.63,1.63,0,1,1,0,3.25c-1.59.06-3.19.06-4.78,0a1.59,1.59,0,0,1-1.71-1.63,1.63,1.63,0,0,1,1.7-1.64C55.63,31.18,56.42,31.21,57.22,31.22Z"/><path d="M77.63,34.23a1.85,1.85,0,1,1,3.69.13,1.86,1.86,0,0,1-1.91,1.74A1.84,1.84,0,0,1,77.63,34.23Z"/><path class="cls-1" d="M56.46,99.82V47.61h47.18a9.87,9.87,0,0,1-.63.79c-4.39,4.4-8.81,8.79-13.18,13.21a2,2,0,0,1-1.79.61c-5.42-.43-10.84-.76-16.18.57-5.92,1.47-8.89,6.52-7.4,12.43.34,1.34,1.11,2,2.15,1.68s1.33-1.09,1-2.43c-1-4.63.83-7.48,5.41-8.64,2.69-.68,10.66-.92,12.69-.38-4.14,4.6-6.41,10.38-9.68,15.53-.52.82-.86,1.68-.06,2.5s1.65.5,2.5,0c4.17-2.42,8.35-4.82,12.51-7.26A7.66,7.66,0,0,0,92.52,75q3.38-3.32,6.68-6.68c.46-.47.86-.66,1.45-.32a34.42,34.42,0,0,1,3.61,2.06,2.09,2.09,0,0,1,.5,3.25,13.41,13.41,0,0,1-2.21,2.49A87.43,87.43,0,0,1,86.44,86.75a3.23,3.23,0,0,1-1.58.29c-4-.19-8-.4-12,.64a14.73,14.73,0,0,0-6.08,3.2c-2.06,1.82-1.64,4.09,1,5,2.41.81,4.86,1.15,7.32,0,2.94-1.41,6-2.55,8.89-4.09a7.75,7.75,0,0,1,5.59-.86l18,3.82c.28.06.54.16.81.2a1.53,1.53,0,0,0,1.91-1.2,1.49,1.49,0,0,0-1.17-1.92c-2.77-.75-5.54-1.5-8.33-2.13-3-.68-6-1.23-9.28-1.87,1-.65,2-1.16,2.83-1.78,3.36-2.42,6.75-4.81,10-7.36A15.22,15.22,0,0,0,107.55,75a5.16,5.16,0,0,0-1.06-7.28,39.8,39.8,0,0,0-3.91-2.64c.17-.19.38-.46.62-.7,5.19-5.19,10.4-10.36,15.55-15.59a1.29,1.29,0,0,1,2-.18,6.26,6.26,0,0,1,2.62,5.48q0,15.38,0,30.75v15Z"/><path class="cls-1" d="M35.21,103.17h87.95a6.2,6.2,0,0,1-5.45,8.11c-.36,0-.72,0-1.08,0q-37.36,0-74.74,0a6.48,6.48,0,0,1-5.5-2.34C35,107.28,35.06,105.3,35.21,103.17Zm47.16,4.12a2.47,2.47,0,1,0-4.93,0,2.47,2.47,0,0,0,4.93,0Z"/><path class="cls-1" d="M53.07,47.54V99.79H35.15V54.19c0-4.26,2.39-6.64,6.68-6.65ZM38.43,74.48c0,1.27,0,2.55,0,3.83s.6,1.93,2,1.94q3.72,0,7.42,0c1.39,0,2-.58,2-2,0-2.51,0-5,0-7.54,0-1.34-.58-1.92-1.88-1.93q-3.82,0-7.65,0c-1.25,0-1.82.58-1.85,1.84S38.43,73.2,38.43,74.48Zm5.69-20.35a5.7,5.7,0,1,0,5.7,5.68A5.64,5.64,0,0,0,44.12,54.13Zm0,40.79c1.35,0,2.71,0,4.06,0a1.6,1.6,0,0,0,1.49-2.55c-1.31-2.36-2.67-4.7-4.05-7a1.66,1.66,0,0,0-3,0c-1.37,2.29-2.7,4.59-4,6.92-.79,1.41-.12,2.57,1.49,2.62C41.44,95,42.79,94.93,44.15,94.92Z"/><path class="cls-1" d="M90.13,122.66H70l2.31-8.12H82.9c1.4,0,2.8,0,4.19,0a1.14,1.14,0,0,1,.87.53C88.71,117.57,89.39,120.06,90.13,122.66Z"/><path class="cls-1" d="M103.18,53.22l3.23,3.06L90.48,72.21,87.4,69Z"/><path class="cls-1" d="M112.39,50.47,109,47.09a4.4,4.4,0,0,1,.38-.49c2.62-2.62,5.2-5.27,7.89-7.82a3.45,3.45,0,0,1,2.28-1,2.33,2.33,0,0,1,1.56,3.91C118.3,44.71,115.3,47.57,112.39,50.47Z"/><path class="cls-1" d="M69.62,92.85c2.9-2.23,6.22-2.63,9.68-2.58-2.82,1-5.23,3.21-8.51,2.93a7.37,7.37,0,0,1-.82-.13C69.86,93.05,69.78,93,69.62,92.85Z"/><path class="cls-1" d="M87.53,74.49l-5.47,3.16-.2-.14c1.06-1.85,2.11-3.71,3.22-5.66Z"/><path class="cls-1" d="M105.57,50.4l.93-.86,3.44,3.53L109,54Z"/><path d="M82.37,107.29a2.47,2.47,0,0,1-4.93,0,2.47,2.47,0,1,1,4.93,0Z"/><path d="M38.43,74.48c0-1.28,0-2.56,0-3.83s.6-1.83,1.85-1.84q3.83,0,7.65,0c1.3,0,1.87.59,1.88,1.93,0,2.51,0,5,0,7.54,0,1.39-.58,2-2,2q-3.7,0-7.42,0c-1.4,0-2-.56-2-1.94S38.43,75.75,38.43,74.48Zm8.1,2.42V72.17h-4.8V76.9Z"/><path d="M44.12,54.13a5.7,5.7,0,1,1-5.68,5.69A5.63,5.63,0,0,1,44.12,54.13Zm2.46,5.72a2.45,2.45,0,1,0-2.45,2.43A2.51,2.51,0,0,0,46.58,59.85Z"/><path d="M44.15,94.93c-1.36,0-2.71,0-4.06,0-1.61,0-2.28-1.21-1.49-2.62,1.3-2.33,2.63-4.63,4-6.92a1.66,1.66,0,0,1,3,0c1.38,2.32,2.74,4.66,4.05,7a1.6,1.6,0,0,1-1.49,2.55C46.86,95,45.5,94.92,44.15,94.93Zm-1.37-3.31h2.71l-1.37-2.37Z"/><path class="cls-1" d="M46.53,76.9h-4.8V72.17h4.8Z"/><path class="cls-1" d="M46.58,59.85a2.45,2.45,0,1,1-4.9-.12,2.45,2.45,0,0,1,4.9.12Z"/><path class="cls-1" d="M42.78,91.62l1.34-2.37,1.37,2.37Z"/></svg>