<svg id="Layer_1" data-name="Layer 1" xmlns="http://www.w3.org/2000/svg" viewBox="0 0 153.39 153.39"><defs><style>.cls-1{fill:#fff;}</style></defs><polygon class="cls-1" points="33.36 116.14 28.64 141.11 58.02 121.42 33.36 116.14"/><ellipse class="cls-1" cx="58.02" cy="93.18" rx="45.74" ry="28.24"/><path class="cls-1" d="M111.77,29.75c-.3-.51-.57-1-.82-1.41-2.27-3.91-4.46-7.87-6.83-11.71A7.45,7.45,0,0,0,90.88,23.3a3.15,3.15,0,0,1-.33,3.21c-5,8.26-11.56,15-19.06,20.91-.92.74-1.75,1.73-3.15,1.31-.24-.07-.59.13-.84.28-3.47,2-7,3.88-10.36,6.06A14,14,0,0,0,67,80.4a48.21,48.21,0,0,0,5.8-1.7l.84,1q6.24,8.41,12.49,16.73C88,99,90.59,99.24,93,97.15l1.94-1.75c2.47-2.25,2.67-4.21.67-7L83.71,72.56c-.27-.37-.52-.75-.82-1.19l2.58-1.05a77.54,77.54,0,0,1,27.66-5.82,2.27,2.27,0,0,1,2,1,7.48,7.48,0,0,0,13.29-2.75,7.4,7.4,0,0,0-1-5.76q-3.61-6.3-7.21-12.49c4-3.86,4.83-7.71,2.64-11.43S117,28.25,111.77,29.75Z"/><path class="cls-1" d="M74.1,124V136.8a4.2,4.2,0,0,0,4,4.37h29.16a4.2,4.2,0,0,0,4.38-4V137q.07-10.83,0-21.66a4.12,4.12,0,0,0-4-4.2h-8a11.85,11.85,0,0,1-1.46-.07l1.33-1.55c10.69-12.82,6.81-28-5.87-37.35a1.67,1.67,0,0,0-2.35.19l-.09.12A1.83,1.83,0,0,0,91.44,75h0c.22.21.49.35.7.56a77.78,77.78,0,0,1,6.31,6.78,18.16,18.16,0,0,1,3.43,13.18c-.71,6-3.85,10.71-8.28,14.64a3.64,3.64,0,0,1-2.17.83c-4.31.07-8.61,0-12.92,0a4.2,4.2,0,0,0-4.41,4,3.23,3.23,0,0,0,0,.44v4.44a62.71,62.71,0,0,1-21,1.55,4.06,4.06,0,0,0-2.91.76c-5.68,4.08-11.43,8.09-17.17,12.07-.34.24-.68.45-1.24.79,1.2-5.15,2.33-10,3.46-14.95.6-2.58.49-2.79-1.87-3.93A35.08,35.08,0,0,1,21,106.76c-4.71-5.83-6.53-12.33-4-19.61C19,81.5,23,77.41,27.8,74.09a49.19,49.19,0,0,1,17.69-7.35c1.46-.32,2.19-1.19,1.95-2.28s-1.2-1.65-2.68-1.29c-2,.46-4,.94-5.91,1.57C30.73,67.4,23.41,71.4,18,78.19c-6.23,7.81-7.7,16.4-3.26,25.59,3.06,6.3,8.19,10.71,14.16,14.19.89.52,2.2.88,2.51,1.65s-.27,2-.51,3q-1.83,7.92-3.69,15.86c-.33,1.48.25,2.64,1.46,2.64a3.56,3.56,0,0,0,1.88-.71c7-4.82,13.91-9.71,20.9-14.51a4.24,4.24,0,0,1,2.25-.65c2.6,0,5.25.22,7.82,0C65.67,125,69.8,124.47,74.1,124Z"/><path class="cls-1" d="M44.76,50.77a12.43,12.43,0,0,0,2.18-1.18,28,28,0,0,0,2.69-2.65,3,3,0,0,0,.16-4.26c-1.56-2.1-.77-4,1.81-4.35a3.06,3.06,0,0,0,2.9-3,34.18,34.18,0,0,0,0-3.92,3,3,0,0,0-2.83-3C49,28,48.22,26.17,49.83,24a3,3,0,0,0-.24-4.2c-.8-.85-1.64-1.68-2.49-2.49a3.1,3.1,0,0,0-4.36-.33l-.1.09c-2,1.51-4,.68-4.28-1.81a3.05,3.05,0,0,0-3.18-2.93H31.63a3,3,0,0,0-3.25,2.8v.08C28,17.71,26.14,18.48,24,16.92a3,3,0,0,0-4.3.21l0,0c-.88.84-1.75,1.7-2.58,2.59a3,3,0,0,0-.23,4.14c1.66,2.31.93,4-1.87,4.47a3,3,0,0,0-2.75,3v3.91a3,3,0,0,0,2.81,3.06c2.69.37,3.47,2.2,1.84,4.39A3.06,3.06,0,0,0,17.16,47c.8.86,1.64,1.68,2.49,2.49a3,3,0,0,0,4.3.38l.14-.12c2-1.52,3.94-.72,4.31,1.78a3.16,3.16,0,0,0,3.32,3h3.39a3.16,3.16,0,0,0,3.26-3c.3-2.39,2.28-3.16,4.2-1.79A15.84,15.84,0,0,0,44.76,50.77Z"/><path class="cls-1" d="M141.22,82.66c0-6.46-1.92-10.29-6.37-12.66a4.63,4.63,0,0,0-6.37,1.55,1.09,1.09,0,0,0-.08.15c-.94,1.52-1.83,3-2.67,4.63a4.61,4.61,0,0,0,1.61,6.18c.43.28.88.54,1.34.78a1.32,1.32,0,0,1,.73,1.7l-.08.15A36.77,36.77,0,0,1,123,96a1.32,1.32,0,0,1-1.79.51,1.24,1.24,0,0,1-.23-.17,11.35,11.35,0,0,0-1.13-.64,4.65,4.65,0,0,0-6.31,1.68q-1.39,2.28-2.66,4.63a4.54,4.54,0,0,0,1.54,6.24l.1.06a15,15,0,0,0,3.29,1.54c4.43,1.34,8.25-.17,11.66-2.85a37.08,37.08,0,0,0,11.85-17A60.41,60.41,0,0,0,141.22,82.66Z"/><path class="cls-1" d="M59.11,98.45H38c-2,0-2.9.56-2.92,1.82s.89,1.84,2.88,1.84h42c.48,0,1,.14,1.4-.1a3.35,3.35,0,0,0,1.43-1.59,1.49,1.49,0,0,0-1.06-1.81l-.18,0A6.21,6.21,0,0,0,80,98.45Z"/><path class="cls-1" d="M52.91,88.56H68.56c1.55,0,2.38-.64,2.41-1.79S70.14,85,68.62,84.9H37.83a6.19,6.19,0,0,0-1.42.11,1.52,1.52,0,0,0-1.32,1.68s0,.08,0,.12a3.4,3.4,0,0,0,1.39,1.63c.32.23.93.11,1.41.11Z"/><path class="cls-1" d="M124.74,13.74c-.51-.47-1-1.31-1.56-1.38a2.55,2.55,0,0,0-2,.92c-1.47,2.25-2.76,4.62-4.1,7-.69,1.22-.48,2.3.51,2.84s2,.12,2.7-1q1.93-3.32,3.83-6.66A13.5,13.5,0,0,0,124.74,13.74Z"/><path class="cls-1" d="M135.11,44.69h4.2a1.81,1.81,0,1,0,0-3.62h0q-4.2-.07-8.4,0a1.81,1.81,0,0,0-.28,3.61h.28C132.33,44.73,133.72,44.69,135.11,44.69Z"/><path class="cls-1" d="M128.92,31.36a3.39,3.39,0,0,0,.89-.15c2.59-1.48,5.2-2.93,7.74-4.5a1.57,1.57,0,0,0,.37-2.18l0,0a1.61,1.61,0,0,0-2.14-.76l-.11.05c-2.51,1.35-5,2.77-7.35,4.31a2.28,2.28,0,0,0-.56,2C127.81,30.65,128.6,31.05,128.92,31.36Z"/><path d="M111.77,29.75c5.25-1.5,9-.37,11.16,3.35s1.32,7.57-2.64,11.43L127.5,57a7.4,7.4,0,0,1,1,5.76,7.48,7.48,0,0,1-13.29,2.75,2.24,2.24,0,0,0-2-1A77.54,77.54,0,0,0,85.47,70.3c-.81.31-1.6.65-2.58,1,.3.44.55.82.82,1.19L95.53,88.47c2,2.71,1.8,4.71-.68,7l-1.93,1.75c-2.36,2.1-5,1.85-6.85-.67q-6.3-8.4-12.49-16.72l-.84-1.05a48.17,48.17,0,0,1-5.8,1.69A14,14,0,0,1,57.11,55.1C60.46,52.92,64,51,67.47,49c.25-.15.6-.35.84-.28,1.43.42,2.26-.57,3.15-1.31,7.48-5.93,14.11-12.6,19.06-20.9a3.17,3.17,0,0,0,.33-3.22,7.45,7.45,0,0,1,13.24-6.67c2.37,3.85,4.56,7.81,6.83,11.71A15.71,15.71,0,0,1,111.77,29.75Zm.47,30.89L93.66,28.45C87.87,38,80.19,45.46,71.53,52c2.92,5.06,5.82,10,8.64,15,.52.95,1,1.16,2,.71a82.94,82.94,0,0,1,19-5.76c3.59-.56,7.23-.89,11.07-1.35ZM97.8,16.88a3.82,3.82,0,0,0-3.57,2.58,4.36,4.36,0,0,0,.67,3.83q7.47,12.92,14.91,25.83l7.83,13.54a3.86,3.86,0,1,0,7.08-3.1,3.58,3.58,0,0,0-.37-.66c-3-5.36-6.15-10.68-9.23-16q-6.81-11.79-13.66-23.58A4.07,4.07,0,0,0,97.8,16.88ZM78.25,71c-3.53-6.09-6.94-12-10.4-18-2.94,1.71-5.77,3.23-8.48,5a10.31,10.31,0,0,0,9.84,18C72.27,74.6,75.13,72.72,78.25,71Zm-2.46,5.6c.29.43.52.79.79,1.14L87.49,92.3c2.22,3,2.19,2.93,5,.4.81-.74.78-1.23.16-2.1-4-5.26-7.88-10.58-11.82-15.88-.18-.24-.39-.46-.62-.73Zm42.54-35.41a4.6,4.6,0,0,0,1.43-6.24,4.49,4.49,0,0,0-6-1.72Q116.05,37.17,118.33,41.15Z"/><path d="M74.1,124c-4.3.44-8.41,1-12.61,1.26-2.59.17-5.25-.09-7.83-.05a4.23,4.23,0,0,0-2.24.65c-7,4.8-13.93,9.69-20.9,14.51a3.56,3.56,0,0,1-1.88.71c-1.21,0-1.8-1.16-1.46-2.64q1.84-8,3.69-15.87c.24-1,.85-2.21.51-3s-1.63-1.13-2.51-1.65c-6-3.48-11.1-7.85-14.16-14.19C10.3,94.56,11.77,86,18,78.17c5.41-6.79,12.73-10.79,20.85-13.45,1.93-.63,3.93-1.11,5.91-1.57,1.48-.36,2.44.15,2.68,1.29s-.49,2-1.95,2.28A49,49,0,0,0,27.8,74.07C23,77.39,19,81.42,17,87.13c-2.55,7.28-.73,13.78,4,19.61a35.2,35.2,0,0,0,12.36,9.4c2.36,1.14,2.47,1.35,1.87,3.93-1.13,4.9-2.26,9.8-3.46,15,.56-.35.9-.56,1.24-.79q8.61-5.94,17.22-12a4.1,4.1,0,0,1,2.91-.77,62.71,62.71,0,0,0,21-1.55v-4.44a4.19,4.19,0,0,1,4-4.42H91.48a3.63,3.63,0,0,0,2.18-.83c4.42-3.93,7.56-8.6,8.27-14.63A18.14,18.14,0,0,0,98.45,82.4a77.66,77.66,0,0,0-6.31-6.77c-.21-.21-.48-.36-.7-.57a1.82,1.82,0,0,1-.26-2.56,1.66,1.66,0,0,1,2.32-.41l.12.09c12.68,9.34,16.56,24.48,5.86,37.24L98.15,111c.63,0,1,.08,1.46.08h7.84a4.12,4.12,0,0,1,4.2,4v.15q.06,10.83,0,21.66a4.21,4.21,0,0,1-4.2,4.21h-29A4.2,4.2,0,0,1,74.08,137c0-.1,0-.2,0-.31C74.08,132.49,74.1,128.17,74.1,124Zm18.74,13.49h13.71c1.12,0,1.51-.3,1.51-1.47q-.09-10,0-20c0-1.1-.38-1.43-1.44-1.42H79.08c-1,0-1.36.3-1.36,1.35,0,6.69,0,13.39,0,20.09,0,1,.31,1.43,1.41,1.42C83.7,137.49,88.27,137.52,92.84,137.52Z"/><path d="M44.76,50.77a16.58,16.58,0,0,1-2.11-1.05c-2-1.41-3.93-.6-4.2,1.79a3.14,3.14,0,0,1-3.27,3h-3.4a3.15,3.15,0,0,1-3.39-2.89.76.76,0,0,1,0-.15c-.37-2.5-2.27-3.3-4.31-1.78a3.05,3.05,0,0,1-4.32-.13l-.12-.13c-.85-.81-1.69-1.63-2.49-2.49a3.06,3.06,0,0,1-.24-4.26c1.62-2.19.85-4-1.84-4.39a3,3,0,0,1-2.81-3.07v-3.9a3,3,0,0,1,2.75-3c2.8-.43,3.52-2.16,1.86-4.47a3,3,0,0,1,.24-4.14c.83-.89,1.7-1.75,2.58-2.59a3,3,0,0,1,4.3-.3l.06.05c2.1,1.56,4,.79,4.36-1.81a3,3,0,0,1,3.18-2.89h3.6a3.06,3.06,0,0,1,3.2,2.9v0c.32,2.49,2.28,3.32,4.29,1.81a3.07,3.07,0,0,1,4.36.14l.09.1c.85.81,1.69,1.64,2.49,2.49a3,3,0,0,1,.24,4.2C48.2,26.16,49,28,51.67,28.37a3,3,0,0,1,2.83,3c0,1.3.07,2.62,0,3.92a3.06,3.06,0,0,1-2.87,3c-2.59.35-3.38,2.23-1.82,4.35a3,3,0,0,1-.16,4.26,28.25,28.25,0,0,1-2.71,2.65A12.43,12.43,0,0,1,44.76,50.77ZM20.09,21.92A6.3,6.3,0,0,1,16,32.09v2.59a6.19,6.19,0,0,1,4.2,9.89l1.78,2.06c.38-.23.7-.45,1-.64a6,6,0,0,1,8.17,2.35,5.63,5.63,0,0,1,.45,1c.36,1.22.9,1.6,2,1.42.34,0,.67,0,1-.06,1.84-5.41,5-6.72,10-4.2l2-1.75C44,40,45.31,36.68,50.84,34.6a8,8,0,0,1,0-1.05c.15-1-.1-1.65-1.35-2a5.43,5.43,0,0,1-4.11-5.25,26,26,0,0,1,.92-4.71l-1.56-1.55c-3.74,2.66-9,1.25-10.16-4.14H32a6.22,6.22,0,0,1-10,4.15Z"/><path d="M141.22,82.66a60.22,60.22,0,0,1-1.9,7.36,37.15,37.15,0,0,1-11.85,17c-3.41,2.69-7.24,4.21-11.66,2.86a15.41,15.41,0,0,1-3.29-1.54,4.55,4.55,0,0,1-1.71-6.2l.06-.11q1.26-2.34,2.67-4.62a4.65,4.65,0,0,1,6.31-1.68,12.6,12.6,0,0,1,1.13.64,1.31,1.31,0,0,0,1.85-.11A1.24,1.24,0,0,0,123,96a36.77,36.77,0,0,0,6.3-10.9,1.3,1.3,0,0,0-.5-1.77l-.15-.08q-.69-.36-1.35-.78a4.62,4.62,0,0,1-1.6-6.18c.84-1.58,1.73-3.15,2.67-4.63a4.62,4.62,0,0,1,6.3-1.79l.15.08C139.3,72.37,141.21,76.2,141.22,82.66Zm-3.66-.8c0-4.41-1.36-7-4.21-8.51-.74-.41-1.38-.53-1.89.32-.8,1.39-1.61,2.78-2.4,4.2a1.13,1.13,0,0,0,.2,1.58,1.11,1.11,0,0,0,.3.17l1.05.59a4.7,4.7,0,0,1,2.22,6.12,42.93,42.93,0,0,1-6.3,11.35c-2.51,3.32-5.26,3.42-7.87,1.56-.14-.1-.33-.27-.45-.24-.53.11-1.28.14-1.53.48a33.08,33.08,0,0,0-2.48,4.28,1.64,1.64,0,0,0,.41,1.51,7.24,7.24,0,0,0,5.55,1.32,13.29,13.29,0,0,0,6.52-3.62,33.87,33.87,0,0,0,6.57-8.4C135.56,90.35,137.33,86,137.56,81.86Z"/><path d="M59.11,98.45H80a6.21,6.21,0,0,1,1.55.13,1.48,1.48,0,0,1,1.28,1.66,1.16,1.16,0,0,1,0,.18A3.38,3.38,0,0,1,81.36,102c-.33.24-.93.1-1.41.1h-42c-2,0-2.89-.59-2.88-1.84S36,98.45,38,98.45Z"/><path d="M52.91,88.56h-15c-.48,0-1,.12-1.41-.11a3.4,3.4,0,0,1-1.39-1.63A1.51,1.51,0,0,1,36.29,85l.12,0a6.19,6.19,0,0,1,1.42-.11H68.62c1.52,0,2.37.73,2.35,1.87s-.86,1.78-2.41,1.79Z"/><path d="M124.74,13.74a14.88,14.88,0,0,1-.65,1.6c-1.26,2.22-2.54,4.45-3.83,6.66-.71,1.2-1.74,1.59-2.7,1.05s-1.2-1.62-.51-2.84c1.34-2.34,2.63-4.71,4.1-7a2.55,2.55,0,0,1,2-.92C123.74,12.43,124.23,13.27,124.74,13.74Z"/><path d="M135.11,44.69h-4.2a1.81,1.81,0,0,1-.28-3.6,1.31,1.31,0,0,1,.28,0q4.2-.09,8.4,0a1.81,1.81,0,1,1,0,3.61h0C137.89,44.71,136.51,44.69,135.11,44.69Z"/><path d="M128.92,31.36c-.32-.31-1.11-.71-1.24-1.26a2.28,2.28,0,0,1,.56-2c2.39-1.54,4.88-3,7.35-4.31a1.62,1.62,0,0,1,2.2.6l.05.11a1.55,1.55,0,0,1-.29,2.19l-.05,0c-2.53,1.57-5.14,3-7.73,4.5A4,4,0,0,1,128.92,31.36Z"/><path class="cls-1" d="M97.8,16.88a4.05,4.05,0,0,1,3.7,2.42q6.8,11.81,13.66,23.58c3.08,5.34,6.19,10.66,9.23,16a3.86,3.86,0,1,1-6.71,3.76q-3.92-6.76-7.82-13.54-7.45-12.91-14.92-25.83a4.36,4.36,0,0,1-.66-3.83A3.81,3.81,0,0,1,97.8,16.88Z"/><path class="cls-1" d="M78.25,71c-3.16,1.76-6,3.59-9,5a10.31,10.31,0,0,1-9.85-18c2.71-1.74,5.54-3.26,8.48-5C71.31,58.94,74.72,64.87,78.25,71Z"/><path class="cls-1" d="M75.79,76.56,80.18,74c.23.27.44.49.62.73,3.94,5.26,7.86,10.6,11.82,15.88.62.82.65,1.31-.16,2.1-2.78,2.53-2.75,2.56-5-.4Q82,85,76.56,77.75C76.31,77.35,76.08,77,75.79,76.56Z"/><path class="cls-1" d="M118.33,41.15c-1.52-2.66-3-5.25-4.59-8a4.49,4.49,0,0,1,6,1.72A4.6,4.6,0,0,1,118.33,41.15Z"/><path class="cls-1" d="M92.84,137.52H79.18c-1.05,0-1.42-.35-1.41-1.42V116c0-1.05.36-1.35,1.36-1.35h27.54c1,0,1.44.32,1.44,1.42q-.08,10,0,20c0,1.17-.39,1.48-1.51,1.47C102,137.49,97.41,137.52,92.84,137.52Zm-7-11.45v5.74c0,1.73,1.34,2.59,2.82,1.76q5.13-2.85,10.17-5.85a1.8,1.8,0,0,0,0-3.33c-3.33-2-6.69-3.91-10.06-5.8-1.55-.88-2.88-.07-2.91,1.73S85.85,124.19,85.85,126.07Z"/><path class="cls-1" d="M20.09,21.92,22,20.09a6.2,6.2,0,0,0,10-4.15h2.63c1.12,5.39,6.42,6.8,10.16,4.14l1.53,1.55a26,26,0,0,0-.92,4.71,5.42,5.42,0,0,0,4.1,5.25c1.25.31,1.51.89,1.36,2a7.38,7.38,0,0,1,0,1.05C45.31,36.7,44,40,46.6,44.79l-1.94,1.75c-5-2.47-8.21-1.16-10,4.2a5.6,5.6,0,0,0-1,.06c-1.14.18-1.68-.2-2-1.42A6,6,0,0,0,23,46c-.34.19-.66.41-1,.64l-1.81-2a6.2,6.2,0,0,0-4.2-9.89V32.09a6.31,6.31,0,0,0,4.16-10.17ZM44.44,33.4a11.1,11.1,0,1,0-11.17,11,11.09,11.09,0,0,0,11.17-11Z"/><path class="cls-1" d="M137.56,81.86c-.23,4.2-2,8.53-4.35,12.69a33.87,33.87,0,0,1-6.57,8.4,13.33,13.33,0,0,1-6.52,3.62,7.24,7.24,0,0,1-5.55-1.32,1.64,1.64,0,0,1-.41-1.51,33.08,33.08,0,0,1,2.48-4.28c.24-.35,1-.37,1.52-.48a1,1,0,0,1,.46.24c2.65,1.86,5.35,1.75,7.86-1.57a42.47,42.47,0,0,0,6.31-11.34,4.71,4.71,0,0,0-2.22-6.13c-.34-.19-.67-.39-1-.58a1.13,1.13,0,0,1-.67-1.44,1.17,1.17,0,0,1,.17-.31c.78-1.39,1.59-2.78,2.4-4.2.51-.85,1.15-.73,1.89-.32C136.2,74.9,137.59,77.45,137.56,81.86Z"/><path d="M85.85,126.07v-5.75c0-1.91,1.36-2.61,2.91-1.73,3.37,1.89,6.72,3.84,10,5.8a1.79,1.79,0,0,1,0,3.33q-5,3-10.16,5.85c-1.49.83-2.79,0-2.82-1.76S85.85,128,85.85,126.07Zm3.7,2.82,4.87-2.82-4.87-2.81Z"/><path d="M44.44,33.4a11.11,11.11,0,1,1,0-.11Zm-3.66,0a7.44,7.44,0,1,0-7.52,7.35h.06a7.42,7.42,0,0,0,7.46-7.39h0Z"/><path class="cls-1" d="M89.55,128.93v-5.64l4.87,2.78Z"/><path class="cls-1" d="M40.78,33.35a7.44,7.44,0,1,1,0-.56A5.23,5.23,0,0,1,40.78,33.35Z"/></svg>