<svg id="Layer_1" data-name="Layer 1" xmlns="http://www.w3.org/2000/svg" viewBox="0 0 153.39 153.39"><defs><style>.cls-1{fill:#fff;}</style></defs><rect class="cls-1" x="19.52" y="34.58" width="113.33" height="74.75" rx="10.37"/><rect class="cls-1" x="39.09" y="21.04" width="75.18" height="72.66"/><path d="M135.21,39.75a8.45,8.45,0,0,0-7.43-6.4c-2.69-.2-5.41,0-8.19,0v3.4h6.92A5.19,5.19,0,0,1,132,42.26v59.45a5.16,5.16,0,0,1-5.46,5.48q-49.86,0-99.73,0a5.15,5.15,0,0,1-5.47-5.46q0-29.79,0-59.57a5.16,5.16,0,0,1,5.49-5.44c2.29,0,4.59,0,7,0V33.27H27.24c-5.75,0-9.31,3.57-9.32,9.31v58.75c0,5.74,3.58,9.31,9.32,9.31H64.07a3.29,3.29,0,0,1,.1.53c0,4.52,0,9,0,13.55,0,.7-.39.89-.92,1.1-4,1.63-8,3.3-12,4.89-.83.33-1.22.7-1.15,1.65a26.3,26.3,0,0,1-.09,3.07h53.27c0-1.1-.13-2.21-.09-3.3a1.21,1.21,0,0,0-.93-1.33q-6.11-2.46-12.19-5c-.36-.15-.86-.62-.87-1,0-4.67,0-9.33,0-14.19h1.37c11.48,0,23-.14,34.43.06,5.44.09,9.3-2.29,10.45-7.4V40.61C135.38,40.33,135.28,40,135.21,39.75Zm-39.7,92.16H57.92l0-.16c2.93-1.2,5.84-2.43,8.79-3.59a1.28,1.28,0,0,0,1-1.41c0-4.86,0-9.71,0-14.57v-1.46H85.77v1.38c0,4.86,0,9.71,0,14.56a1.36,1.36,0,0,0,1,1.51C89.7,129.31,92.6,130.55,95.51,131.91Z"/><polygon points="114.29 17.96 114.29 47.47 110.94 47.47 110.94 21.4 100.58 21.4 100.58 51.88 97.17 51.88 97.17 21.39 56.35 21.39 56.35 62.03 80.41 62.03 80.41 65.44 56.3 65.44 56.3 93.67 52.8 93.67 52.8 21.36 42.53 21.36 42.53 93.69 39.09 93.69 39.09 17.96 114.29 17.96"/><path d="M125.42,42.73v58.46H28V42.73h5.83v3.4H31.43V97.69H122V46.19l-2.42-.11V42.73Z"/><path d="M117.45,60.84q-2.1-3.15-4.22-6.28-2.79-4.16-6.94-1.37Q90.63,63.71,75,74.25a3.78,3.78,0,0,0-1.25,1.41c-2.27,4.5-4.49,9-6.73,13.54-.16.33-.3.68-.45,1,.16.07.23.13.3.13,5.44-.39,10.9-.78,16.35-1.19a3,3,0,0,0,1.26-.48Q100.33,78,116.16,67.38C118.63,65.72,119.09,63.32,117.45,60.84ZM72.2,86.51l3.52-7.14c1.51,2.25,2.89,4.31,4.41,6.56Zm11.5-1.46c-2-2.9-3.83-5.69-5.8-8.63l23.84-16L107.55,69Zm30.71-20.64c-1.29.88-2.59,1.75-4,2.69l-5.79-8.62c1.43-1,2.76-1.92,4.16-2.74A1.31,1.31,0,0,1,110,56c1.62,2.27,3.15,4.6,4.69,6.91A.94.94,0,0,1,114.41,64.41Z"/><path d="M68.93,27.12V54.51l19.7-13.7Zm3.43,6.58c3.43,2.37,6.75,4.69,10.24,7.11L72.36,47.92Z"/><rect x="110.96" y="76.07" width="3.31" height="17.63"/><rect x="97.18" y="85.31" width="3.33" height="8.38"/><rect x="45.97" y="24.99" width="3.34" height="3.25"/><rect x="104.07" y="24.97" width="3.34" height="3.3"/><rect x="45.99" y="35.28" width="3.32" height="3.3"/><rect x="104.06" y="35.29" width="3.35" height="3.3"/><rect x="46.02" y="45.61" width="3.28" height="3.33"/><rect x="104.08" y="45.64" width="3.35" height="3.28"/><rect x="45.98" y="55.96" width="3.35" height="3.31"/><rect x="45.98" y="66.28" width="3.31" height="3.32"/><rect x="45.97" y="76.61" width="3.31" height="3.31"/><rect x="45.98" y="86.95" width="3.35" height="3.3"/><rect x="104.09" y="87.2" width="3.3" height="3.3"/><path class="cls-1" d="M57.89,131.76c2.93-1.21,5.84-2.44,8.79-3.6a1.28,1.28,0,0,0,1-1.41c0-4.86,0-9.71,0-14.57v-1.45H85.76v1.37c0,4.85,0,9.71,0,14.57a1.34,1.34,0,0,0,1,1.5c3,1.15,5.86,2.38,8.75,3.74H57.92Z"/><path class="cls-1" d="M83.69,85.05c-2-2.91-3.83-5.69-5.79-8.63l23.84-16L107.55,69Z"/><path class="cls-1" d="M104.61,58.47c1.43-.95,2.76-1.91,4.17-2.73A1.3,1.3,0,0,1,110,56c1.61,2.27,3.15,4.6,4.7,6.91a1,1,0,0,1-.3,1.47l-4,2.69Z"/><path class="cls-1" d="M75.72,79.37c1.52,2.25,2.89,4.3,4.41,6.56l-7.93.59Z"/><path class="cls-1" d="M82.6,40.81,72.36,47.92V33.7Z"/></svg>